<mxfile host="Electron" agent="Mozilla/5.0 (Windows NT 10.0; Win64; x64) AppleWebKit/537.36 (KHTML, like Gecko) draw.io/24.7.8 Chrome/128.0.6613.36 Electron/32.0.1 Safari/537.36" version="24.7.8">
  <diagram name="Page-1" id="DtThUZp2GI6F0C5K0l1S">
    <mxGraphModel dx="1020" dy="496" grid="1" gridSize="10" guides="1" tooltips="1" connect="1" arrows="1" fold="1" page="1" pageScale="1" pageWidth="850" pageHeight="1100" math="0" shadow="0">
      <root>
        <mxCell id="0" />
        <mxCell id="1" parent="0" />
        <mxCell id="3IbMD9qt2GUTavFWl-AV-3" style="edgeStyle=orthogonalEdgeStyle;rounded=0;orthogonalLoop=1;jettySize=auto;html=1;exitX=0.5;exitY=1;exitDx=0;exitDy=0;entryX=0.5;entryY=0;entryDx=0;entryDy=0;" edge="1" parent="1" source="3IbMD9qt2GUTavFWl-AV-1" target="3IbMD9qt2GUTavFWl-AV-2">
          <mxGeometry relative="1" as="geometry" />
        </mxCell>
        <mxCell id="3IbMD9qt2GUTavFWl-AV-1" value="Seller" style="rounded=1;whiteSpace=wrap;html=1;" vertex="1" parent="1">
          <mxGeometry x="80" y="160" width="120" height="60" as="geometry" />
        </mxCell>
        <mxCell id="3IbMD9qt2GUTavFWl-AV-13" style="edgeStyle=orthogonalEdgeStyle;rounded=0;orthogonalLoop=1;jettySize=auto;html=1;exitX=1;exitY=0.5;exitDx=0;exitDy=0;entryX=0;entryY=0.5;entryDx=0;entryDy=0;" edge="1" parent="1" source="3IbMD9qt2GUTavFWl-AV-2" target="3IbMD9qt2GUTavFWl-AV-12">
          <mxGeometry relative="1" as="geometry" />
        </mxCell>
        <mxCell id="3IbMD9qt2GUTavFWl-AV-2" value="login" style="ellipse;whiteSpace=wrap;html=1;aspect=fixed;" vertex="1" parent="1">
          <mxGeometry x="100" y="270" width="80" height="80" as="geometry" />
        </mxCell>
        <mxCell id="3IbMD9qt2GUTavFWl-AV-10" value="" style="edgeStyle=orthogonalEdgeStyle;rounded=0;orthogonalLoop=1;jettySize=auto;html=1;" edge="1" parent="1" source="3IbMD9qt2GUTavFWl-AV-4" target="3IbMD9qt2GUTavFWl-AV-1">
          <mxGeometry relative="1" as="geometry" />
        </mxCell>
        <mxCell id="3IbMD9qt2GUTavFWl-AV-4" value="Enter Detailes" style="text;html=1;align=center;verticalAlign=middle;whiteSpace=wrap;rounded=0;" vertex="1" parent="1">
          <mxGeometry x="80" y="240" width="60" height="30" as="geometry" />
        </mxCell>
        <mxCell id="3IbMD9qt2GUTavFWl-AV-5" value="Seller DB" style="html=1;dashed=0;whiteSpace=wrap;shape=partialRectangle;right=0;" vertex="1" parent="1">
          <mxGeometry x="50" y="410" width="100" height="30" as="geometry" />
        </mxCell>
        <mxCell id="3IbMD9qt2GUTavFWl-AV-6" style="edgeStyle=orthogonalEdgeStyle;rounded=0;orthogonalLoop=1;jettySize=auto;html=1;exitX=0;exitY=1;exitDx=0;exitDy=0;entryX=0.32;entryY=-0.056;entryDx=0;entryDy=0;entryPerimeter=0;" edge="1" parent="1" source="3IbMD9qt2GUTavFWl-AV-2" target="3IbMD9qt2GUTavFWl-AV-5">
          <mxGeometry relative="1" as="geometry" />
        </mxCell>
        <mxCell id="3IbMD9qt2GUTavFWl-AV-7" value="check" style="text;html=1;align=center;verticalAlign=middle;whiteSpace=wrap;rounded=0;" vertex="1" parent="1">
          <mxGeometry x="50" y="350" width="60" height="30" as="geometry" />
        </mxCell>
        <mxCell id="3IbMD9qt2GUTavFWl-AV-8" style="edgeStyle=orthogonalEdgeStyle;rounded=0;orthogonalLoop=1;jettySize=auto;html=1;exitX=0.75;exitY=0;exitDx=0;exitDy=0;entryX=0.425;entryY=0.979;entryDx=0;entryDy=0;entryPerimeter=0;" edge="1" parent="1" source="3IbMD9qt2GUTavFWl-AV-5" target="3IbMD9qt2GUTavFWl-AV-2">
          <mxGeometry relative="1" as="geometry" />
        </mxCell>
        <mxCell id="3IbMD9qt2GUTavFWl-AV-16" style="edgeStyle=orthogonalEdgeStyle;rounded=0;orthogonalLoop=1;jettySize=auto;html=1;exitX=0;exitY=1;exitDx=0;exitDy=0;entryX=0;entryY=0;entryDx=0;entryDy=0;" edge="1" parent="1" source="3IbMD9qt2GUTavFWl-AV-12" target="3IbMD9qt2GUTavFWl-AV-15">
          <mxGeometry relative="1" as="geometry" />
        </mxCell>
        <mxCell id="3IbMD9qt2GUTavFWl-AV-23" style="edgeStyle=orthogonalEdgeStyle;rounded=0;orthogonalLoop=1;jettySize=auto;html=1;exitX=0.5;exitY=1;exitDx=0;exitDy=0;entryX=0.5;entryY=0;entryDx=0;entryDy=0;" edge="1" parent="1" source="3IbMD9qt2GUTavFWl-AV-12" target="3IbMD9qt2GUTavFWl-AV-15">
          <mxGeometry relative="1" as="geometry" />
        </mxCell>
        <mxCell id="3IbMD9qt2GUTavFWl-AV-51" style="edgeStyle=orthogonalEdgeStyle;rounded=0;orthogonalLoop=1;jettySize=auto;html=1;exitX=1;exitY=0;exitDx=0;exitDy=0;entryX=0;entryY=0;entryDx=0;entryDy=0;" edge="1" parent="1" source="3IbMD9qt2GUTavFWl-AV-12" target="3IbMD9qt2GUTavFWl-AV-40">
          <mxGeometry relative="1" as="geometry">
            <Array as="points">
              <mxPoint x="450" y="282" />
              <mxPoint x="450" y="302" />
            </Array>
          </mxGeometry>
        </mxCell>
        <mxCell id="3IbMD9qt2GUTavFWl-AV-58" style="edgeStyle=orthogonalEdgeStyle;rounded=0;orthogonalLoop=1;jettySize=auto;html=1;exitX=0.5;exitY=0;exitDx=0;exitDy=0;entryX=0.5;entryY=0;entryDx=0;entryDy=0;" edge="1" parent="1" source="3IbMD9qt2GUTavFWl-AV-12" target="3IbMD9qt2GUTavFWl-AV-57">
          <mxGeometry relative="1" as="geometry">
            <Array as="points">
              <mxPoint x="280" y="160" />
              <mxPoint x="730" y="160" />
            </Array>
          </mxGeometry>
        </mxCell>
        <mxCell id="3IbMD9qt2GUTavFWl-AV-61" style="edgeStyle=orthogonalEdgeStyle;rounded=0;orthogonalLoop=1;jettySize=auto;html=1;exitX=0;exitY=0;exitDx=0;exitDy=0;entryX=0.5;entryY=0;entryDx=0;entryDy=0;" edge="1" parent="1" source="3IbMD9qt2GUTavFWl-AV-12" target="3IbMD9qt2GUTavFWl-AV-60">
          <mxGeometry relative="1" as="geometry">
            <Array as="points">
              <mxPoint x="220" y="282" />
              <mxPoint x="220" y="90" />
              <mxPoint x="830" y="90" />
            </Array>
          </mxGeometry>
        </mxCell>
        <mxCell id="3IbMD9qt2GUTavFWl-AV-12" value="Seller&amp;nbsp;&lt;div&gt;Dashboard&lt;/div&gt;" style="ellipse;whiteSpace=wrap;html=1;aspect=fixed;" vertex="1" parent="1">
          <mxGeometry x="240" y="270" width="80" height="80" as="geometry" />
        </mxCell>
        <mxCell id="3IbMD9qt2GUTavFWl-AV-14" value="Display" style="text;html=1;align=center;verticalAlign=middle;whiteSpace=wrap;rounded=0;" vertex="1" parent="1">
          <mxGeometry x="170" y="280" width="60" height="30" as="geometry" />
        </mxCell>
        <mxCell id="3IbMD9qt2GUTavFWl-AV-21" style="edgeStyle=orthogonalEdgeStyle;rounded=0;orthogonalLoop=1;jettySize=auto;html=1;exitX=0;exitY=0.5;exitDx=0;exitDy=0;entryX=0;entryY=0.75;entryDx=0;entryDy=0;" edge="1" parent="1" source="3IbMD9qt2GUTavFWl-AV-15" target="3IbMD9qt2GUTavFWl-AV-18">
          <mxGeometry relative="1" as="geometry" />
        </mxCell>
        <mxCell id="3IbMD9qt2GUTavFWl-AV-15" value="Products" style="ellipse;whiteSpace=wrap;html=1;aspect=fixed;" vertex="1" parent="1">
          <mxGeometry x="220" y="450" width="80" height="80" as="geometry" />
        </mxCell>
        <mxCell id="3IbMD9qt2GUTavFWl-AV-17" value="view" style="text;html=1;align=center;verticalAlign=middle;whiteSpace=wrap;rounded=0;" vertex="1" parent="1">
          <mxGeometry x="190" y="370" width="60" height="30" as="geometry" />
        </mxCell>
        <mxCell id="3IbMD9qt2GUTavFWl-AV-19" style="edgeStyle=orthogonalEdgeStyle;rounded=0;orthogonalLoop=1;jettySize=auto;html=1;exitX=0.75;exitY=0;exitDx=0;exitDy=0;entryX=0.5;entryY=1;entryDx=0;entryDy=0;" edge="1" parent="1" source="3IbMD9qt2GUTavFWl-AV-18" target="3IbMD9qt2GUTavFWl-AV-15">
          <mxGeometry relative="1" as="geometry" />
        </mxCell>
        <mxCell id="3IbMD9qt2GUTavFWl-AV-18" value="Product DB" style="html=1;dashed=0;whiteSpace=wrap;shape=partialRectangle;right=0;" vertex="1" parent="1">
          <mxGeometry x="250" y="550" width="100" height="30" as="geometry" />
        </mxCell>
        <mxCell id="3IbMD9qt2GUTavFWl-AV-20" value="Fetch" style="text;html=1;align=center;verticalAlign=middle;whiteSpace=wrap;rounded=0;" vertex="1" parent="1">
          <mxGeometry x="270" y="530" width="60" height="30" as="geometry" />
        </mxCell>
        <mxCell id="3IbMD9qt2GUTavFWl-AV-22" value="add / update /&amp;nbsp;&lt;div&gt;delete&lt;/div&gt;" style="text;html=1;align=center;verticalAlign=middle;whiteSpace=wrap;rounded=0;" vertex="1" parent="1">
          <mxGeometry x="150" y="520" width="60" height="30" as="geometry" />
        </mxCell>
        <mxCell id="3IbMD9qt2GUTavFWl-AV-28" style="edgeStyle=orthogonalEdgeStyle;rounded=0;orthogonalLoop=1;jettySize=auto;html=1;exitX=0;exitY=0;exitDx=0;exitDy=0;entryX=1;entryY=0.5;entryDx=0;entryDy=0;" edge="1" parent="1" source="3IbMD9qt2GUTavFWl-AV-25" target="3IbMD9qt2GUTavFWl-AV-12">
          <mxGeometry relative="1" as="geometry">
            <Array as="points">
              <mxPoint x="370" y="422" />
              <mxPoint x="370" y="380" />
              <mxPoint x="340" y="380" />
              <mxPoint x="340" y="310" />
            </Array>
          </mxGeometry>
        </mxCell>
        <mxCell id="3IbMD9qt2GUTavFWl-AV-25" value="Order" style="ellipse;whiteSpace=wrap;html=1;aspect=fixed;" vertex="1" parent="1">
          <mxGeometry x="345" y="410" width="80" height="80" as="geometry" />
        </mxCell>
        <mxCell id="3IbMD9qt2GUTavFWl-AV-27" value="view" style="text;html=1;align=center;verticalAlign=middle;whiteSpace=wrap;rounded=0;" vertex="1" parent="1">
          <mxGeometry x="310" y="380" width="60" height="30" as="geometry" />
        </mxCell>
        <mxCell id="3IbMD9qt2GUTavFWl-AV-30" style="edgeStyle=orthogonalEdgeStyle;rounded=0;orthogonalLoop=1;jettySize=auto;html=1;exitX=0.5;exitY=0;exitDx=0;exitDy=0;entryX=0.5;entryY=1;entryDx=0;entryDy=0;" edge="1" parent="1" source="3IbMD9qt2GUTavFWl-AV-29" target="3IbMD9qt2GUTavFWl-AV-25">
          <mxGeometry relative="1" as="geometry" />
        </mxCell>
        <mxCell id="3IbMD9qt2GUTavFWl-AV-29" value="Order DB" style="html=1;dashed=0;whiteSpace=wrap;shape=partialRectangle;right=0;" vertex="1" parent="1">
          <mxGeometry x="370" y="530" width="100" height="30" as="geometry" />
        </mxCell>
        <mxCell id="3IbMD9qt2GUTavFWl-AV-31" value="Fetch" style="text;html=1;align=center;verticalAlign=middle;whiteSpace=wrap;rounded=0;" vertex="1" parent="1">
          <mxGeometry x="350" y="510" width="60" height="30" as="geometry" />
        </mxCell>
        <mxCell id="3IbMD9qt2GUTavFWl-AV-38" style="edgeStyle=orthogonalEdgeStyle;rounded=0;orthogonalLoop=1;jettySize=auto;html=1;exitX=1;exitY=1;exitDx=0;exitDy=0;entryX=0.5;entryY=0;entryDx=0;entryDy=0;" edge="1" parent="1" source="3IbMD9qt2GUTavFWl-AV-32" target="3IbMD9qt2GUTavFWl-AV-33">
          <mxGeometry relative="1" as="geometry">
            <Array as="points">
              <mxPoint x="520" y="418" />
            </Array>
          </mxGeometry>
        </mxCell>
        <mxCell id="3IbMD9qt2GUTavFWl-AV-32" value="Reselling" style="ellipse;whiteSpace=wrap;html=1;aspect=fixed;" vertex="1" parent="1">
          <mxGeometry x="425" y="350" width="80" height="80" as="geometry" />
        </mxCell>
        <mxCell id="3IbMD9qt2GUTavFWl-AV-34" style="edgeStyle=orthogonalEdgeStyle;rounded=0;orthogonalLoop=1;jettySize=auto;html=1;exitX=0.25;exitY=0;exitDx=0;exitDy=0;entryX=0.5;entryY=1;entryDx=0;entryDy=0;" edge="1" parent="1" source="3IbMD9qt2GUTavFWl-AV-33" target="3IbMD9qt2GUTavFWl-AV-32">
          <mxGeometry relative="1" as="geometry" />
        </mxCell>
        <mxCell id="3IbMD9qt2GUTavFWl-AV-33" value="Resell DB" style="html=1;dashed=0;whiteSpace=wrap;shape=partialRectangle;right=0;" vertex="1" parent="1">
          <mxGeometry x="470" y="475" width="100" height="30" as="geometry" />
        </mxCell>
        <mxCell id="3IbMD9qt2GUTavFWl-AV-35" value="Fetch" style="text;html=1;align=center;verticalAlign=middle;whiteSpace=wrap;rounded=0;" vertex="1" parent="1">
          <mxGeometry x="440" y="450" width="60" height="30" as="geometry" />
        </mxCell>
        <mxCell id="3IbMD9qt2GUTavFWl-AV-36" style="edgeStyle=orthogonalEdgeStyle;rounded=0;orthogonalLoop=1;jettySize=auto;html=1;exitX=0;exitY=0;exitDx=0;exitDy=0;entryX=0.967;entryY=0.379;entryDx=0;entryDy=0;entryPerimeter=0;" edge="1" parent="1" source="3IbMD9qt2GUTavFWl-AV-32" target="3IbMD9qt2GUTavFWl-AV-12">
          <mxGeometry relative="1" as="geometry" />
        </mxCell>
        <mxCell id="3IbMD9qt2GUTavFWl-AV-37" value="view" style="text;html=1;align=center;verticalAlign=middle;whiteSpace=wrap;rounded=0;" vertex="1" parent="1">
          <mxGeometry x="370" y="360" width="60" height="30" as="geometry" />
        </mxCell>
        <mxCell id="3IbMD9qt2GUTavFWl-AV-39" value="add / update /&amp;nbsp;&lt;div&gt;delete&lt;/div&gt;" style="text;html=1;align=center;verticalAlign=middle;whiteSpace=wrap;rounded=0;" vertex="1" parent="1">
          <mxGeometry x="520" y="430" width="60" height="30" as="geometry" />
        </mxCell>
        <mxCell id="3IbMD9qt2GUTavFWl-AV-55" style="edgeStyle=orthogonalEdgeStyle;rounded=0;orthogonalLoop=1;jettySize=auto;html=1;exitX=1;exitY=0.5;exitDx=0;exitDy=0;entryX=1;entryY=0.5;entryDx=0;entryDy=0;" edge="1" parent="1" source="3IbMD9qt2GUTavFWl-AV-40" target="3IbMD9qt2GUTavFWl-AV-41">
          <mxGeometry relative="1" as="geometry" />
        </mxCell>
        <mxCell id="3IbMD9qt2GUTavFWl-AV-40" value="Buy Back" style="ellipse;whiteSpace=wrap;html=1;aspect=fixed;" vertex="1" parent="1">
          <mxGeometry x="540" y="290" width="80" height="80" as="geometry" />
        </mxCell>
        <mxCell id="3IbMD9qt2GUTavFWl-AV-41" value="Customer" style="rounded=1;whiteSpace=wrap;html=1;" vertex="1" parent="1">
          <mxGeometry x="480" y="170" width="120" height="60" as="geometry" />
        </mxCell>
        <mxCell id="3IbMD9qt2GUTavFWl-AV-42" style="edgeStyle=orthogonalEdgeStyle;rounded=0;orthogonalLoop=1;jettySize=auto;html=1;exitX=0.5;exitY=1;exitDx=0;exitDy=0;entryX=0.342;entryY=0.071;entryDx=0;entryDy=0;entryPerimeter=0;" edge="1" parent="1" source="3IbMD9qt2GUTavFWl-AV-41" target="3IbMD9qt2GUTavFWl-AV-40">
          <mxGeometry relative="1" as="geometry" />
        </mxCell>
        <mxCell id="3IbMD9qt2GUTavFWl-AV-43" value="Send Request" style="text;html=1;align=center;verticalAlign=middle;whiteSpace=wrap;rounded=0;" vertex="1" parent="1">
          <mxGeometry x="570" y="260" width="60" height="30" as="geometry" />
        </mxCell>
        <mxCell id="3IbMD9qt2GUTavFWl-AV-47" style="edgeStyle=orthogonalEdgeStyle;rounded=0;orthogonalLoop=1;jettySize=auto;html=1;exitX=0.5;exitY=0;exitDx=0;exitDy=0;entryX=0.5;entryY=1;entryDx=0;entryDy=0;" edge="1" parent="1" source="3IbMD9qt2GUTavFWl-AV-44" target="3IbMD9qt2GUTavFWl-AV-40">
          <mxGeometry relative="1" as="geometry">
            <Array as="points">
              <mxPoint x="600" y="535" />
              <mxPoint x="600" y="453" />
              <mxPoint x="580" y="453" />
            </Array>
          </mxGeometry>
        </mxCell>
        <mxCell id="3IbMD9qt2GUTavFWl-AV-44" value="Buy Back DB" style="html=1;dashed=0;whiteSpace=wrap;shape=partialRectangle;right=0;" vertex="1" parent="1">
          <mxGeometry x="560" y="535" width="100" height="30" as="geometry" />
        </mxCell>
        <mxCell id="3IbMD9qt2GUTavFWl-AV-45" style="edgeStyle=orthogonalEdgeStyle;rounded=0;orthogonalLoop=1;jettySize=auto;html=1;exitX=1;exitY=1;exitDx=0;exitDy=0;entryX=0.867;entryY=0.022;entryDx=0;entryDy=0;entryPerimeter=0;" edge="1" parent="1" source="3IbMD9qt2GUTavFWl-AV-40" target="3IbMD9qt2GUTavFWl-AV-44">
          <mxGeometry relative="1" as="geometry" />
        </mxCell>
        <mxCell id="3IbMD9qt2GUTavFWl-AV-46" value="store" style="text;html=1;align=center;verticalAlign=middle;whiteSpace=wrap;rounded=0;" vertex="1" parent="1">
          <mxGeometry x="600" y="420" width="60" height="30" as="geometry" />
        </mxCell>
        <mxCell id="3IbMD9qt2GUTavFWl-AV-48" value="fetch" style="text;html=1;align=center;verticalAlign=middle;whiteSpace=wrap;rounded=0;" vertex="1" parent="1">
          <mxGeometry x="590" y="505" width="60" height="30" as="geometry" />
        </mxCell>
        <mxCell id="3IbMD9qt2GUTavFWl-AV-49" style="edgeStyle=orthogonalEdgeStyle;rounded=0;orthogonalLoop=1;jettySize=auto;html=1;exitX=0;exitY=0.5;exitDx=0;exitDy=0;entryX=0.9;entryY=0.238;entryDx=0;entryDy=0;entryPerimeter=0;" edge="1" parent="1" source="3IbMD9qt2GUTavFWl-AV-40" target="3IbMD9qt2GUTavFWl-AV-12">
          <mxGeometry relative="1" as="geometry" />
        </mxCell>
        <mxCell id="3IbMD9qt2GUTavFWl-AV-50" value="display" style="text;html=1;align=center;verticalAlign=middle;whiteSpace=wrap;rounded=0;" vertex="1" parent="1">
          <mxGeometry x="490" y="330" width="60" height="30" as="geometry" />
        </mxCell>
        <mxCell id="3IbMD9qt2GUTavFWl-AV-52" value="Chang status" style="text;html=1;align=center;verticalAlign=middle;whiteSpace=wrap;rounded=0;" vertex="1" parent="1">
          <mxGeometry x="440" y="270" width="60" height="30" as="geometry" />
        </mxCell>
        <mxCell id="3IbMD9qt2GUTavFWl-AV-56" value="display response" style="text;html=1;align=center;verticalAlign=middle;whiteSpace=wrap;rounded=0;" vertex="1" parent="1">
          <mxGeometry x="600" y="170" width="60" height="30" as="geometry" />
        </mxCell>
        <mxCell id="3IbMD9qt2GUTavFWl-AV-57" value="payment" style="ellipse;whiteSpace=wrap;html=1;aspect=fixed;" vertex="1" parent="1">
          <mxGeometry x="690" y="290" width="80" height="80" as="geometry" />
        </mxCell>
        <mxCell id="3IbMD9qt2GUTavFWl-AV-59" value="view" style="text;html=1;align=center;verticalAlign=middle;whiteSpace=wrap;rounded=0;" vertex="1" parent="1">
          <mxGeometry x="220" y="240" width="60" height="30" as="geometry" />
        </mxCell>
        <mxCell id="3IbMD9qt2GUTavFWl-AV-60" value="logout" style="ellipse;whiteSpace=wrap;html=1;aspect=fixed;" vertex="1" parent="1">
          <mxGeometry x="790" y="290" width="80" height="80" as="geometry" />
        </mxCell>
      </root>
    </mxGraphModel>
  </diagram>
</mxfile>
